<svg width="16" height="16" viewBox="0 0 16 16" fill="none" xmlns="http://www.w3.org/2000/svg">
<g clip-path="url(#clip0_102_5)">
<rect width="16" height="16" rx="3" fill="#1DB954"/>
<g filter="url(#filter0_d_102_5)">
<path d="M12.6956 3.55997C11.9822 2.32249 8.75674 2.06 8.39258 2.02625L7.98383 2V9.60862C7.88935 9.53155 7.78867 9.46256 7.68283 9.40238C7.3096 9.2128 6.90219 9.10145 6.48516 9.07502C6.06814 9.0486 5.65013 9.10765 5.25632 9.24863C3.72535 9.74737 2.74063 11.1723 3.0602 12.4248C3.13142 12.6897 3.25594 12.937 3.426 13.1511C3.59606 13.3653 3.80801 13.5419 4.04864 13.6698C4.46117 13.8919 4.92256 14.0054 5.3901 13.9998C5.76634 13.9995 6.14013 13.9387 6.49745 13.8198C7.87235 13.3736 8.80133 12.1811 8.74931 11.0374V4.43371C9.1209 4.47871 9.62999 4.55746 10.1688 4.67371C10.7022 4.75553 11.2146 4.94149 11.6775 5.2212C12.0491 5.46869 11.8187 5.93369 11.8001 5.97118C11.6225 6.24334 11.4156 6.49486 11.1833 6.72117C11.1157 6.7888 11.0764 6.88003 11.0735 6.97603C11.0706 7.07204 11.1043 7.16551 11.1677 7.23716C11.2311 7.30882 11.3193 7.3532 11.4141 7.36115C11.509 7.36911 11.6032 7.34003 11.6775 7.27991C11.7555 7.19366 13.7435 5.37494 12.6956 3.55997Z" fill="black"/>
</g>
<path d="M5.04199 11.4143C5.37811 11.4251 5.91474 11.5983 5.98486 11.867C6.03611 12.0638 5.35399 12.2759 5.38549 12.6993C5.05261 12.5621 5.01049 12.3401 5.00349 12.2204C4.99649 12.1007 4.73724 11.94 4.76161 11.7939C4.78599 11.6479 4.90886 11.4843 4.67761 11.3588C4.83886 11.4143 4.92299 11.4105 5.04199 11.4143Z" stroke="white" stroke-width="0.1" stroke-linecap="round" stroke-linejoin="round"/>
<path d="M7.40249 11.2713C7.40249 11.2713 7.77049 11.6115 7.83174 11.4129C8.03174 10.765 7.15712 10.2431 7.05024 10.252C6.94337 10.2608 6.69099 10.322 6.66649 10.3965C6.64199 10.4709 6.85049 10.5206 6.85574 10.5776C6.86099 10.6346 6.61387 10.671 6.47724 10.7134C6.34062 10.7558 6.31774 10.8886 6.35099 10.9368C6.38424 10.9849 6.53512 10.877 6.64549 10.8726C6.75587 10.8682 6.88899 10.9266 6.99587 10.9295C7.10274 10.9324 7.11512 10.8244 7.22712 10.8566C7.33912 10.8887 7.28499 11.0434 7.10111 11.0872C6.91724 11.1309 6.83649 11.0296 6.66112 11.0318C6.43424 11.0346 6.17062 11.1369 6.18987 11.3866C6.20912 11.6362 6.70674 11.5326 6.76637 11.6539C6.82599 11.7751 6.80662 12.1372 6.91187 12.2643C7.01712 12.3914 7.23949 12.4029 7.33587 12.2028C7.43224 12.0027 7.31137 11.8992 7.39549 11.7998C7.47962 11.7004 7.78712 11.5651 7.62412 11.4336M5.29312 10.2984C5.35312 10.227 5.45274 10.1406 5.54512 10.1406M5.54512 10.1406C5.63749 10.1406 5.68687 10.1797 5.75812 10.1797C5.82937 10.1797 5.99824 10.1495 6.15399 10.1495C6.30974 10.1495 6.34137 10.2264 6.20412 10.3248C6.06687 10.4232 5.88999 10.5007 5.79199 10.5007C5.69399 10.5007 5.63349 10.1528 5.54512 10.1406ZM4.67749 11.3589C4.49362 11.2888 4.50237 11.2128 4.55662 11.1412C4.61087 11.0697 4.76162 11.1704 4.85987 11.1719C4.95812 11.1733 5.19374 10.8784 5.33262 10.82C5.47149 10.7616 5.60637 10.7075 5.53799 10.5878C5.46962 10.4681 5.24012 10.509 5.14549 10.4593C5.05087 10.4096 5.02449 10.252 4.97899 10.2403C4.93349 10.2286 4.51937 10.5299 4.35862 10.7996C4.22724 11.0201 4.09049 11.1836 4.21674 11.299C4.34299 11.4143 4.44962 11.2713 4.67749 11.3589Z" stroke="white" stroke-width="0.1" stroke-linecap="round" stroke-linejoin="round"/>
<path d="M6.00949 9.64447C4.75899 9.64447 3.74536 10.4291 3.74536 11.3968C3.74536 11.9526 4.08074 12.447 4.60224 12.768V13.2653C4.60223 13.2776 4.60606 13.2896 4.61333 13.3003C4.62061 13.311 4.63109 13.3199 4.64374 13.3262C4.65639 13.3325 4.67079 13.3359 4.68551 13.3361C4.70024 13.3364 4.71479 13.3334 4.72774 13.3276L5.31249 13.0635C5.53224 13.1185 5.76611 13.1489 6.00949 13.1489C7.25999 13.1489 8.27374 12.3645 8.27374 11.3967C8.27374 10.4288 7.26011 9.64447 6.00949 9.64447Z" stroke="white" stroke-width="0.1" stroke-linecap="round" stroke-linejoin="round"/>
</g>
<defs>
<filter id="filter0_d_102_5" x="-1" y="2" width="18" height="20" filterUnits="userSpaceOnUse" color-interpolation-filters="sRGB">
<feFlood flood-opacity="0" result="BackgroundImageFix"/>
<feColorMatrix in="SourceAlpha" type="matrix" values="0 0 0 0 0 0 0 0 0 0 0 0 0 0 0 0 0 0 127 0" result="hardAlpha"/>
<feOffset dy="4"/>
<feGaussianBlur stdDeviation="2"/>
<feComposite in2="hardAlpha" operator="out"/>
<feColorMatrix type="matrix" values="0 0 0 0 0 0 0 0 0 0 0 0 0 0 0 0 0 0 0.25 0"/>
<feBlend mode="normal" in2="BackgroundImageFix" result="effect1_dropShadow_102_5"/>
<feBlend mode="normal" in="SourceGraphic" in2="effect1_dropShadow_102_5" result="shape"/>
</filter>
<clipPath id="clip0_102_5">
<rect width="16" height="16" rx="3" fill="white"/>
</clipPath>
</defs>
</svg>
